<svg width="8" height="8" viewBox="0 0 8 8" fill="none" xmlns="http://www.w3.org/2000/svg">
<path d="M1.86411 0.0304138C2.08711 0.0364138 2.49511 0.188414 2.66011 0.253414C3.6794 0.648708 5.56591 1.90413 6.44462 2.75494L6.59711 2.90941L6.67611 2.99441C6.77011 3.09341 6.88611 3.21941 6.91311 3.25341C7.08011 3.46641 7.17111 3.73141 7.17111 4.00041C7.17111 4.25541 7.09111 4.50141 6.94111 4.70841C6.91311 4.74601 6.81215 4.85913 6.72168 4.95715L6.65711 5.02641L6.60811 5.07841C5.79411 5.95441 3.77911 7.27841 2.76111 7.70741C2.75565 7.71014 2.25433 7.91865 1.94309 7.9618L1.85611 7.96941H1.82011C1.37811 7.96941 0.960104 7.71641 0.754104 7.31841C0.668286 7.15187 0.585112 6.76423 0.545743 6.56287L0.525073 6.45315L0.522105 6.43641C0.427105 5.85841 0.373105 4.96941 0.375051 3.99941C0.373105 2.97341 0.433104 2.05241 0.538104 1.47341C0.539104 1.46541 0.639104 0.942414 0.714104 0.766414C0.816104 0.519414 1.00811 0.307414 1.25111 0.175414C1.44711 0.0724137 1.65211 0.0274138 1.86411 0.0304138ZM1.99911 1.55041C1.98411 1.61941 1.97011 1.68741 1.96211 1.73341C1.87511 2.21441 1.82111 3.08341 1.82209 3.99941C1.82111 4.88241 1.86911 5.70641 1.95111 6.20141C1.96111 6.26341 1.98011 6.35841 2.00111 6.45041C2.07311 6.42141 2.15111 6.39241 2.20011 6.37241C3.12611 5.98241 4.94011 4.74741 5.54711 4.09141C5.55211 4.09241 5.60411 4.03341 5.60511 4.03141C5.61411 4.02141 5.62411 4.01041 5.63511 4.00041L5.62811 3.99291L5.62111 3.98541L5.53711 3.89641C4.91011 3.22541 2.99911 1.93741 2.13211 1.60041C2.10111 1.58841 2.05311 1.57041 1.99911 1.55041Z" fill="white"/>
</svg>
