<svg width="21" height="20" viewBox="0 0 21 20" fill="none" xmlns="http://www.w3.org/2000/svg">
<path d="M6.61208 0C7.07851 0 7.4572 0.371347 7.4572 0.829812C7.4572 1.28719 7.07962 1.65854 6.61208 1.65854L4.80414 1.65962C3.30159 1.6618 2.08001 2.86078 2.08001 4.33419V6.39892C2.08001 6.8563 1.70021 7.22873 1.23379 7.22873C0.767363 7.22873 0.388672 6.8563 0.388672 6.39892V4.33419C0.388672 1.94712 2.36875 0.00326698 4.80192 0.00108899L6.61208 0ZM16.3471 0.000762295C18.7869 0.000762295 20.7703 1.9457 20.7703 4.33822V6.39968C20.7703 6.85597 20.3917 7.22841 19.9252 7.22841C19.4588 7.22841 19.0801 6.85597 19.0801 6.39968V4.33822C19.0801 2.86046 17.8541 1.65821 16.3471 1.65821H14.578C14.1116 1.65821 13.7329 1.28686 13.7329 0.829486C13.7329 0.37102 14.1116 0.000762295 14.578 0.000762295H16.3471Z" fill="white"/>
<path d="M14.5471 20.0001C14.0807 20.0001 13.702 19.6287 13.702 19.1702C13.702 18.7129 14.0796 18.3415 14.5471 18.3415L16.355 18.3404C17.8576 18.3383 19.0792 17.1393 19.0792 15.6659V13.6011C19.0792 13.1438 19.459 12.7713 19.9254 12.7713C20.3918 12.7713 20.7705 13.1438 20.7705 13.6011V15.6659C20.7705 18.0529 18.7904 19.9968 16.3573 19.999L14.5471 20.0001ZM4.81207 19.9993C2.37224 19.9993 0.38883 18.0544 0.38883 15.6618V13.6004C0.38883 13.1441 0.767521 12.7717 1.23394 12.7717C1.70037 12.7717 2.07906 13.1441 2.07906 13.6004V15.6618C2.07906 17.1396 3.30508 18.3419 4.81207 18.3419L6.58115 18.3419C7.04757 18.3419 7.42626 18.7132 7.42626 19.1706C7.42626 19.629 7.04757 19.9993 6.58115 19.9993L4.81207 19.9993Z" fill="white"/>
</svg>
