<svg width="114" height="110" viewBox="0 0 114 110" fill="none" xmlns="http://www.w3.org/2000/svg">
<path fill-rule="evenodd" clip-rule="evenodd" d="M9.63997 12.5031C9.70022 12.3773 9.76155 12.2523 9.82397 12.1275C10.0728 11.6291 10.9728 9.83396 11.2149 9.35098C11.255 9.27048 11.2968 9.19103 11.34 9.11209C11.8423 8.19354 12.4457 7.32917 13.1402 6.53435C14.5845 4.88377 16.3326 3.45696 18.3379 2.34511C18.9689 1.99524 19.6151 1.68211 20.2735 1.40597C22.7959 0.358462 25.5364 -0.114622 28.281 0.0234474C29.2043 0.0562716 30.1301 0.102903 30.1301 0.102903L32.1199 0.27015C32.1786 0.281873 32.1786 0.281873 32.1199 0.27015C63.3703 2.9164 90.7378 18.3917 108.301 41.3397C109.242 42.5612 110.154 43.8041 111.034 45.0702C112.933 47.8133 113.962 51.027 113.996 54.3206C113.999 54.3537 114 54.387 114 54.4204C114.011 56.2705 113.735 58.0831 113.201 59.8087C112.706 61.382 111.974 62.8773 111.027 64.2465C110.49 65.0468 109.93 65.8322 109.359 66.6101L109.257 66.7495C91.7404 90.4816 63.9899 106.904 32.2312 109.698C32.5476 109.632 32.5476 109.632 32.2312 109.698L30.1301 109.879C30.1301 109.879 29.2043 109.927 28.281 109.975C25.6382 110.112 22.997 109.679 20.5517 108.707C19.8322 108.409 19.1231 108.075 18.4324 107.697C16.5008 106.64 14.8049 105.291 13.3945 103.727C12.5716 102.819 11.8616 101.823 11.2792 100.758C11.2751 100.759 11.2751 100.759 11.2751 100.759L9.75504 97.7264C3.49123 84.7194 0 70.2453 0 54.9948C0 39.8342 3.45052 25.4408 9.63997 12.5031ZM60.8528 41.9915C61.8375 40.2221 62.8832 38.453 64.0306 36.6846C64.6271 35.7705 65.6351 35.1776 66.7543 35.0825C69.8949 34.8337 73.0523 34.8626 76.2233 35.1091C77.2514 35.1925 78.1923 35.6965 78.8062 36.4924C83.3236 42.3901 86.9234 48.6006 89.7386 55.0787C90.1139 55.9506 90.1001 56.9322 89.7006 57.7945C86.9554 63.6739 83.687 69.2525 80.0576 74.6229C79.7121 75.1311 79.0917 75.4018 78.4659 75.3174C77.84 75.233 77.3214 74.8086 77.1352 74.229C76.4651 72.0847 75.3519 70.1517 73.7105 68.4717C72.5638 67.2757 72.4466 65.4722 73.4299 64.1491C75.0324 61.9754 76.403 59.6902 77.4869 57.2675C77.7184 56.742 77.7288 56.1507 77.5157 55.6179C76.1937 52.3454 74.4565 49.2547 72.094 46.4373C71.7212 45.9976 71.1862 45.7126 70.6003 45.6412C68.0701 45.3453 65.5276 45.2908 62.9757 45.4151C64.8293 48.5633 66.4629 51.7864 67.8934 55.0787C68.2687 55.9506 68.2549 56.9322 67.8557 57.7945C65.1102 63.6739 61.8418 69.2525 58.2124 74.6229C57.8669 75.1311 57.2465 75.4018 56.6207 75.3174C55.9949 75.233 55.4762 74.8086 55.2901 74.229C54.62 72.0847 53.5067 70.1517 51.8653 68.4717C50.7187 67.2757 50.6017 65.4722 51.5847 64.1491C53.1873 61.9754 54.5578 59.6902 55.6418 57.2675C55.8733 56.742 55.8836 56.1507 55.6708 55.6179C54.3489 52.3454 52.6114 49.2547 50.2489 46.4373C49.876 45.9976 49.3411 45.7126 48.7551 45.6412C46.2249 45.3453 43.6825 45.2908 41.1305 45.4151C42.9842 48.5633 44.6177 51.7864 46.0482 55.0787C46.4236 55.9506 46.41 56.9322 46.0105 57.7945C43.2651 63.6739 39.9969 69.2525 36.3673 74.6229C36.0218 75.1311 35.4016 75.4018 34.7755 75.3174C34.1497 75.233 33.6311 74.8086 33.4449 74.229C32.7748 72.0847 31.6615 70.1517 30.0201 68.4717C28.8735 67.2757 28.7565 65.4722 29.7395 64.1491C31.3421 61.9754 32.7127 59.6902 33.7966 57.2675C34.0281 56.742 34.0384 56.1507 33.8257 55.6179C32.5037 52.3454 30.7662 49.2547 28.4037 46.4373C28.0308 45.9976 27.4959 45.7126 26.91 45.6412C23.9775 45.2981 21.028 45.2794 18.0673 45.4878C17.4771 45.5302 16.909 45.2627 16.5828 44.7883C16.2569 44.3142 16.224 43.7075 16.497 43.2034C17.6752 41.0299 18.9307 38.8568 20.3403 36.6846C20.9368 35.7705 21.9448 35.1776 23.064 35.0825C26.2046 34.8337 29.362 34.8626 32.533 35.1091C33.561 35.1925 34.5022 35.6965 35.1159 36.4924C36.4978 38.2967 37.7937 40.1299 39.0077 41.9915C39.9923 40.2221 41.038 38.453 42.1854 36.6846C42.782 35.7705 43.7899 35.1776 44.9092 35.0825C48.0498 34.8337 51.2072 34.8626 54.3782 35.1091C55.4062 35.1925 56.3474 35.6965 56.961 36.4924C58.343 38.2967 59.6389 40.1299 60.8528 41.9915Z" fill="#4569FF"/>
</svg>
