<svg width="20" height="20" viewBox="0 0 20 20" fill="none" xmlns="http://www.w3.org/2000/svg">
<path opacity="1" d="M18.5567 0.247628C18.8871 -0.0825426 19.4218 -0.0825426 19.7522 0.247628C20.0826 0.579003 20.0826 1.11523 19.7522 1.4466L1.49883 19.7518C1.33422 19.9169 1.11795 20 0.901679 20C0.685407 20 0.469135 19.9169 0.303327 19.7518C-0.0258876 19.4204 -0.0258876 18.8842 0.303327 18.5528L11.7814 7.04383C11.7693 5.66531 11.7405 5.45203 11.6925 5.11704L11.5999 4.3374C11.5519 3.88552 11.5026 3.41919 11.4053 3.04082C11.2599 2.55882 10.8995 2.22021 10.5126 2.22021H10.4909C10.3335 2.22624 9.94425 2.38048 9.70395 2.58292L5.74016 5.83642C5.58877 5.96054 5.40014 6.02802 5.20549 6.02802H2.95626C2.24737 6.02802 1.91095 6.63172 1.83165 7.19807C1.64301 8.72601 1.64181 11.371 1.83165 12.7338C1.89653 13.1978 1.57453 13.6268 1.11194 13.6906C1.07229 13.6966 1.03264 13.6991 0.994195 13.6991C0.578473 13.6991 0.216818 13.3918 0.157944 12.9688C-0.073948 11.3047 -0.0294921 8.47417 0.155541 6.97635C0.373014 5.41347 1.52286 4.33258 2.95626 4.33258H4.90391L8.62259 1.28031C9.07196 0.899533 9.85895 0.550083 10.4873 0.524778C11.612 0.541648 12.6549 1.31767 13.0321 2.58412C13.1703 3.11432 13.2268 3.64453 13.2808 4.15786L13.3674 4.87724C13.3914 5.04715 13.4106 5.19416 13.4262 5.39419L18.5567 0.247628ZM12.6352 11.6327C13.1025 11.6399 13.475 12.0243 13.4678 12.4931C13.4486 13.8523 13.4041 14.7958 13.332 15.3791L13.2804 15.8599C13.2323 16.3467 13.183 16.8516 13.0389 17.3902C12.6616 18.6555 11.6547 19.4761 10.5133 19.4761C10.476 19.4761 10.4388 19.4761 10.4015 19.4749C9.77196 19.4749 9.08469 19.0953 8.6954 18.7651L7.21995 17.5589C6.85829 17.2637 6.80302 16.7299 7.09859 16.3672C7.39417 16.0057 7.92523 15.9514 8.28809 16.2455L9.77436 17.4613C10.0243 17.6722 10.3415 17.7794 10.4424 17.7794C10.4508 17.783 10.4592 17.7806 10.4688 17.7806C10.9002 17.7806 11.2594 17.4396 11.4132 16.9299C11.5129 16.5479 11.555 16.131 11.5983 15.6924C11.6151 15.52 11.6331 15.3465 11.6535 15.173C11.7172 14.6549 11.7593 13.7463 11.7785 12.4678C11.7845 12.0014 12.1353 11.6363 12.6352 11.6327Z" fill="white"/>
</svg>
