<svg width="20" height="20" viewBox="0 0 20 20" fill="none" xmlns="http://www.w3.org/2000/svg">
<g opacity="1">
<path d="M10 0C15.514 0 20 4.485 20 10C20 15.514 15.514 20 10 20C8.605 20 7.255 19.719 5.987 19.162C5.621 19.002 5.455 18.575 5.615 18.209C5.775 17.841 6.201 17.676 6.569 17.837C7.652 18.312 8.806 18.553 10 18.553C14.715 18.553 18.552 14.715 18.552 10C18.552 5.284 14.715 1.448 10 1.448C5.284 1.448 1.448 5.284 1.448 10C1.448 11.847 2.026 13.604 3.122 15.084C3.359 15.405 3.292 15.858 2.971 16.096C2.649 16.335 2.196 16.269 1.958 15.945C0.677 14.216 0 12.16 0 10C0 4.485 4.486 0 10 0Z" fill="white"/>
<rect x="12" y="5.59985" width="1.448" height="8.8" rx="0.724" fill="white"/>
<rect x="7.2002" y="5.59998" width="1.448" height="8.8" rx="0.724" fill="white"/>
</g>
</svg>
