<svg width="24" height="20" viewBox="0 0 24 20" fill="none" xmlns="http://www.w3.org/2000/svg">
<path opacity="1" d="M22.0229 12.9851L22.1322 13.0001C22.5711 13.0995 22.8501 13.5525 22.754 14.0117C22.3221 16.0991 21.5336 18.0435 20.4753 19.6366C20.3167 19.8728 20.0631 20 19.8072 20C19.6463 20 19.4842 19.9503 19.3429 19.8474C18.9747 19.5796 18.8844 19.0502 19.1403 18.6637C20.0782 17.2536 20.7787 15.52 21.1654 13.6507C21.2615 13.1939 21.6934 12.9093 22.1322 13.0001L22.0229 12.9851ZM10.0833 0.492383C11.1718 0.511767 12.171 1.28832 12.5334 2.55916C12.6677 3.09099 12.721 3.62404 12.7731 4.13892L12.8217 4.60412C13.0093 6.16571 13.0093 13.8343 12.8217 15.3983L12.7731 15.8793C12.7268 16.3699 12.6782 16.8751 12.5392 17.4154C12.1791 18.6839 11.21 19.5089 10.1111 19.5089C10.0752 19.5077 10.0417 19.5064 10.0069 19.5077C9.39788 19.5077 8.73673 19.126 8.36273 18.7953L4.4931 15.494C4.14458 15.1972 4.09247 14.663 4.37615 14.2983C4.65983 13.9349 5.17162 13.8792 5.51898 14.176L9.40135 17.4869C9.64451 17.7001 9.96292 17.8322 10.0486 17.8055C10.4492 17.8346 10.8267 17.4748 10.9761 16.9515C11.0733 16.5698 11.1127 16.1519 11.1555 15.7109C11.1718 15.5365 11.188 15.3644 11.2076 15.19C11.3767 13.781 11.3767 6.21901 11.2088 4.81249L11.1567 4.317C11.1104 3.86512 11.0629 3.39871 10.968 3.0183C10.8267 2.52402 10.4434 2.14968 10.0903 2.1945C9.93977 2.19935 9.56461 2.35321 9.33304 2.55794L5.5213 5.82286C5.3754 5.94764 5.19478 6.01549 5.00604 6.01549H2.84312C2.16113 6.01549 1.83808 6.62122 1.76166 7.18819C1.57987 8.72313 1.57987 11.3763 1.76166 12.744C1.82419 13.208 1.51388 13.6381 1.07041 13.7035C0.628097 13.7604 0.213576 13.443 0.152208 12.9778C-0.0712627 11.3072 -0.0284211 8.46872 0.149892 6.96528C0.359469 5.39885 1.4664 4.31458 2.84312 4.31458H4.71657L8.2921 1.25198C8.72284 0.869151 9.50672 0.497229 10.0833 0.492383ZM15.6243 3.62416C15.9925 3.35643 16.4985 3.45092 16.7555 3.83496C17.8648 5.50437 18.4761 7.69229 18.4761 10.0001C18.4761 12.3068 17.8648 14.4959 16.7555 16.1641C16.5969 16.4016 16.3445 16.5276 16.0874 16.5276C15.9276 16.5276 15.7655 16.4779 15.6243 16.3749C15.2549 16.1084 15.1646 15.5778 15.4205 15.1913C16.3421 13.8054 16.8505 11.9627 16.8505 10.0001C16.8505 8.03756 16.3421 6.19248 15.4205 4.80777C15.1646 4.42131 15.2549 3.8919 15.6243 3.62416ZM19.3427 0.150384C19.712 -0.114928 20.2192 -0.0204333 20.4751 0.364815C22.205 2.96585 23.1579 6.38947 23.1579 9.99966C23.1579 10.4697 22.7932 10.8501 22.3451 10.8501C21.8958 10.8501 21.5322 10.4697 21.5322 9.99966C21.5322 6.73232 20.6823 3.65639 19.14 1.3352C18.8842 0.948745 18.9756 0.419331 19.3427 0.150384Z" fill="white"/>
</svg>
