<svg width="20" height="20" viewBox="0 0 20 20" fill="none" xmlns="http://www.w3.org/2000/svg">
<path d="M10.9148 0C12.0945 0.02039 13.1752 0.837263 13.5676 2.17408C13.713 2.73353 13.7707 3.29298 13.8271 3.83586L13.8797 4.32522C14.0828 5.96661 14.0828 14.0321 13.8797 15.6773L13.8271 16.1833C13.7769 16.6981 13.7243 17.2308 13.5738 17.7992C13.184 19.1334 12.1346 20 10.9449 20C10.9073 19.9987 10.8709 19.9975 10.8333 19.9987C10.1739 19.9987 9.45807 19.5973 9.05314 19.2494L4.8634 15.778C4.48604 15.4658 4.42963 14.9038 4.73678 14.5202C5.04518 14.1379 5.59804 14.0793 5.97539 14.3915L10.1764 17.8743C10.4397 18.0986 10.7857 18.2375 10.8785 18.2082C11.3122 18.2401 11.7197 17.8616 11.8814 17.3111C11.988 16.9096 12.0306 16.47 12.0757 16.0074C12.0933 15.8239 12.1108 15.6429 12.1334 15.4581C12.3152 13.976 12.3152 6.02268 12.1334 4.54441L12.077 4.02192C12.0268 3.54658 11.9754 3.05722 11.8739 2.65579C11.7197 2.13712 11.306 1.74334 10.9236 1.79049C10.7594 1.79559 10.3532 1.95744 10.1037 2.17281L5.97665 5.60596C5.81869 5.73722 5.62312 5.80859 5.41877 5.80859H3.07818C2.33977 5.80859 1.98875 6.44578 1.90726 7.04218C1.71043 8.65681 1.70918 11.4477 1.90726 12.8852C1.97495 13.3733 1.63897 13.8257 1.15757 13.8958C0.679921 13.9544 0.231109 13.6218 0.164665 13.1324C-0.0772918 11.375 -0.0309063 8.38919 0.163412 6.8077C0.389071 5.16121 1.58632 4.02065 3.07818 4.02065H5.10535L8.97666 0.800306C9.44177 0.397604 10.2905 0.00509749 10.9148 0ZM16.9135 3.29323C17.3134 3.01287 17.86 3.111 18.1383 3.51625C19.3393 5.27233 20 7.57258 20 10.0003C20 12.4254 19.3393 14.7282 18.1383 16.483C17.9666 16.7328 17.6933 16.8653 17.4149 16.8653C17.2419 16.8653 17.0664 16.8131 16.9135 16.7047C16.5148 16.4244 16.417 15.8662 16.6941 15.4609C17.6908 14.0031 18.2411 12.0635 18.2411 10.0003C18.2411 7.93577 17.6908 5.99618 16.6941 4.53957C16.417 4.13177 16.5148 3.57614 16.9135 3.29323Z" fill="white"/>
</svg>
